<svg width="49" height="50" viewBox="0 0 49 50" fill="none" xmlns="http://www.w3.org/2000/svg">
<path d="M0.0826492 12.4284C0.0826492 5.8227 5.43761 0.467743 12.0433 0.467743H37.0014C43.6071 0.467743 48.962 5.8227 48.962 12.4284V37.3865C48.962 43.9922 43.6071 49.3471 37.0014 49.3471H12.0433C5.43761 49.3471 0.0826492 43.9922 0.0826492 37.3865V12.4284Z" fill="#FDBF00"/>
<path d="M14.4611 30.8678C14.4611 31.9642 14.9516 32.9485 15.7187 33.6337V35.2284C15.7187 36.2625 16.5614 37.0973 17.6052 37.0973C18.649 37.0973 19.4916 36.2625 19.4916 35.2284V34.6055H29.5527V35.2284C29.5527 36.2501 30.3953 37.0973 31.4392 37.0973C32.4704 37.0973 33.3256 36.2625 33.3256 35.2284V33.6337C34.0928 32.9485 34.5833 31.9642 34.5833 30.8678V18.4088C34.5833 14.0482 30.0809 13.4252 24.5222 13.4252C18.9634 13.4252 14.4611 14.0482 14.4611 18.4088V30.8678ZM18.8628 32.1137C17.819 32.1137 16.9764 31.2789 16.9764 30.2449C16.9764 29.2108 17.819 28.376 18.8628 28.376C19.9067 28.376 20.7493 29.2108 20.7493 30.2449C20.7493 31.2789 19.9067 32.1137 18.8628 32.1137ZM30.1815 32.1137C29.1377 32.1137 28.2951 31.2789 28.2951 30.2449C28.2951 29.2108 29.1377 28.376 30.1815 28.376C31.2254 28.376 32.068 29.2108 32.068 30.2449C32.068 31.2789 31.2254 32.1137 30.1815 32.1137ZM32.068 24.6383H16.9764V18.4088H32.068V24.6383Z" fill="white"/>
</svg>
