<svg width="53" height="50" viewBox="0 0 53 50" fill="none" xmlns="http://www.w3.org/2000/svg">
<path d="M0.566467 12.4284C0.566467 5.8227 5.92143 0.467743 12.5271 0.467743H40.9336C47.5393 0.467743 52.8942 5.8227 52.8942 12.4284V37.3865C52.8942 43.9922 47.5393 49.3471 40.9336 49.3471H12.5271C5.92143 49.3471 0.566467 43.9922 0.566467 37.3865V12.4284Z" fill="#4DABFF"/>
<path d="M34.8824 18.2327C34.6468 17.5895 33.9871 17.1316 33.2095 17.1316H30.2644V16.0415C30.2644 15.4419 29.7342 14.9513 29.0863 14.9513H24.374C23.7261 14.9513 23.196 15.4419 23.196 16.0415V17.1316H20.2508C19.4733 17.1316 18.8253 17.5895 18.578 18.2327L16.2572 24.4139C16.1747 24.6429 16.1276 24.8827 16.1276 25.1334V32.939C16.1276 33.8438 16.9169 34.5742 17.8947 34.5742C18.8725 34.5742 19.6618 33.8438 19.6618 32.939V32.3939H33.7986V32.939C33.7986 33.8329 34.5879 34.5742 35.5657 34.5742C36.5317 34.5742 37.3328 33.8438 37.3328 32.939V25.1334C37.3328 24.8936 37.2857 24.6429 37.2032 24.4139L34.8824 18.2327ZM20.2508 29.1234C19.273 29.1234 18.4837 28.393 18.4837 27.4882C18.4837 26.5834 19.273 25.8529 20.2508 25.8529C21.2286 25.8529 22.0179 26.5834 22.0179 27.4882C22.0179 28.393 21.2286 29.1234 20.2508 29.1234ZM33.2095 29.1234C32.2317 29.1234 31.4424 28.393 31.4424 27.4882C31.4424 26.5834 32.2317 25.8529 33.2095 25.8529C34.1873 25.8529 34.9766 26.5834 34.9766 27.4882C34.9766 28.393 34.1873 29.1234 33.2095 29.1234ZM18.4837 23.6726L20.2508 18.7669H33.2095L34.9766 23.6726H18.4837Z" fill="white"/>
</svg>
