<svg width="50" height="50" viewBox="0 0 50 50" fill="none" xmlns="http://www.w3.org/2000/svg">
<path d="M0.774475 12.4284C0.774475 5.8227 6.12943 0.467743 12.7351 0.467743H37.6932C44.2989 0.467743 49.6539 5.8227 49.6539 12.4284V37.3865C49.6539 43.9922 44.2989 49.3471 37.6932 49.3471H12.7351C6.12943 49.3471 0.774475 43.9922 0.774475 37.3865V12.4284Z" fill="#79CA00"/>
<path d="M33.021 16.2062H17.4069C16.3305 16.2062 15.4551 17.0734 15.4551 18.1398V31.6747C15.4551 32.741 16.3305 33.6082 17.4069 33.6082H33.021C34.0974 33.6082 34.9727 32.741 34.9727 31.6747V18.1398C34.9727 17.0734 34.0974 16.2062 33.021 16.2062ZM33.022 22.0069C33.021 22.0069 33.021 22.0069 33.022 22.0069H32.5682L29.9655 18.1398H33.021L33.022 22.0069ZM28.6295 27.8075L23.2622 30.7079V24.9072L28.6295 27.8075ZM27.6888 22.0069L25.0861 18.1398H27.6195L30.2222 22.0069H27.6888V22.0069ZM25.3428 22.0069H22.8094L20.2067 18.1398H22.7401L25.3428 22.0069ZM17.4069 18.1398H17.8607L20.4634 22.0069H17.4069V18.1398Z" fill="white"/>
</svg>
