<svg width="50" height="50" viewBox="0 0 50 50" fill="none" xmlns="http://www.w3.org/2000/svg">
<path d="M0.377289 12.4284C0.377289 5.8227 5.73225 0.467743 12.3379 0.467743H37.2961C43.9017 0.467743 49.2567 5.8227 49.2567 12.4284V37.3865C49.2567 43.9922 43.9017 49.3471 37.2961 49.3471H12.3379C5.73225 49.3471 0.377289 43.9922 0.377289 37.3865V12.4284Z" fill="#FF9B53"/>
<path d="M29.0075 13.9554C28.5149 13.4677 27.8471 13.1938 27.1507 13.1938C26.4544 13.1938 25.7865 13.4677 25.294 13.9554L13.7613 25.3815C13.5174 25.6232 13.324 25.91 13.1919 26.2257C13.0599 26.5414 12.992 26.8798 12.992 27.2215C12.992 27.5632 13.0599 27.9016 13.1919 28.2173C13.324 28.533 13.5174 28.8199 13.7613 29.0615L15.1295 30.4158C15.7249 31.0067 16.5619 30.9015 17.0674 30.6031C17.3462 30.4391 17.6723 30.3718 17.994 30.4117C18.3158 30.4517 18.6149 30.5968 18.8443 30.8239C19.0736 31.0511 19.2199 31.3474 19.2603 31.6662C19.3007 31.985 19.2327 32.308 19.0671 32.5842C18.7671 33.085 18.6597 33.9142 19.2562 34.504L20.6256 35.8594C20.8695 36.101 21.1591 36.2927 21.4777 36.4235C21.7964 36.5542 22.138 36.6215 22.4829 36.6215C22.8279 36.6215 23.1694 36.5542 23.4881 36.4235C23.8068 36.2927 24.0963 36.101 24.3402 35.8594L35.8717 24.4355C36.1156 24.1939 36.3091 23.907 36.4411 23.5913C36.5731 23.2756 36.6411 22.9373 36.6411 22.5955C36.6411 22.2538 36.5731 21.9155 36.4411 21.5997C36.3091 21.284 36.1156 20.9972 35.8717 20.7556L34.5047 19.4001C33.9093 18.8103 33.0712 18.9144 32.5657 19.2128C32.2868 19.3768 31.9608 19.4441 31.639 19.4042C31.3173 19.3642 31.0181 19.2192 30.7888 18.992C30.5595 18.7648 30.4131 18.4685 30.3728 18.1497C30.3324 17.8309 30.4004 17.508 30.5659 17.2317C30.8671 16.731 30.9734 15.9018 30.3768 15.3119L29.0086 13.9554H29.0075Z" fill="white"/>
</svg>
