<svg width="50" height="50" viewBox="0 0 50 50" fill="none" xmlns="http://www.w3.org/2000/svg">
<rect x="0.155762" y="0.467743" width="48.8794" height="48.8794" rx="11.9606" fill="#F9668D"/>
<path d="M23.7401 21.5155H25.4521V20.6675C25.4521 20.4426 25.5423 20.2269 25.7028 20.0679C25.8633 19.9089 26.0811 19.8195 26.3081 19.8195H28.8762C29.1032 19.8195 29.3209 19.9089 29.4815 20.0679C29.642 20.2269 29.7322 20.4426 29.7322 20.6675V21.5155H33.1563V18.1235C33.1563 17.2239 32.7955 16.3612 32.1534 15.7251C31.5112 15.0889 30.6403 14.7316 29.7322 14.7316H19.46C18.5518 14.7316 17.6809 15.0889 17.0388 15.7251C16.3966 16.3612 16.0359 17.2239 16.0359 18.1235V21.5155H19.46V20.6675C19.46 20.4426 19.5501 20.2269 19.7107 20.0679C19.8712 19.9089 20.0889 19.8195 20.316 19.8195H22.884C23.1111 19.8195 23.3288 19.9089 23.4893 20.0679C23.6499 20.2269 23.7401 20.4426 23.7401 20.6675V21.5155Z" fill="white"/>
<path d="M16.892 23.2115C15.7569 23.2115 14.6683 23.6582 13.8657 24.4534C13.063 25.2485 12.6121 26.327 12.6121 27.4515V34.2354C12.6121 34.4603 12.7023 34.676 12.8628 34.835C13.0234 34.9941 13.2411 35.0834 13.4681 35.0834C13.6951 35.0834 13.9128 34.9941 14.0734 34.835C14.2339 34.676 14.3241 34.4603 14.3241 34.2354V29.9955H34.8676V34.2354C34.8676 34.4603 34.9578 34.676 35.1184 34.835C35.2789 34.9941 35.4966 35.0834 35.7236 35.0834C35.9506 35.0834 36.1684 34.9941 36.3289 34.835C36.4894 34.676 36.5796 34.4603 36.5796 34.2354V27.4515C36.5796 26.327 36.1287 25.2485 35.3261 24.4534C34.5234 23.6582 33.4348 23.2115 32.2997 23.2115H16.892Z" fill="white"/>
</svg>
