<svg width="89" height="19" viewBox="0 0 89 19" fill="none" xmlns="http://www.w3.org/2000/svg">
<line x1="4.54163" y1="9.02788" x2="81.9507" y2="9.02789" stroke="#CCCCCC" stroke-width="0.74754" stroke-dasharray="2.24 2.24"/>
<path d="M43.8475 16.4423H42.8268C42.7242 16.4423 42.6233 16.4188 42.5332 16.3739C42.4432 16.329 42.3669 16.2642 42.3113 16.1855C42.2557 16.1067 42.2227 16.0164 42.2151 15.923C42.2076 15.8295 42.2258 15.7358 42.2681 15.6504L44.7397 10.6658L41.0284 10.5905L39.6749 12.0892C39.4168 12.3856 39.2109 12.5177 38.6856 12.5177H37.9985C37.8897 12.5209 37.7816 12.5001 37.6835 12.4571C37.5854 12.414 37.5001 12.3499 37.4348 12.2703C37.3436 12.1579 37.2538 11.9672 37.3413 11.6953L38.1012 9.20742C38.107 9.18885 38.1139 9.17028 38.1216 9.15205C38.1219 9.15032 38.1219 9.14853 38.1216 9.1468C38.1136 9.12859 38.1069 9.10999 38.1012 9.09108L37.3405 6.58741C37.258 6.32075 37.3482 6.13433 37.4386 6.02465C37.4994 5.95097 37.5782 5.89134 37.6688 5.85057C37.7594 5.80979 37.8592 5.789 37.9601 5.78988H38.6856C39.0779 5.78988 39.4586 5.95072 39.6825 6.21037L41.0081 7.68384L44.7397 7.63338L42.2688 2.65757C42.2265 2.57223 42.2082 2.47854 42.2157 2.38508C42.2232 2.29162 42.2561 2.20136 42.3116 2.12255C42.3671 2.04374 42.4434 1.97891 42.5333 1.93397C42.6233 1.88903 42.7242 1.86542 42.8268 1.8653H43.8586C44.0025 1.86794 44.144 1.90018 44.2724 1.95963C44.4009 2.01908 44.513 2.10421 44.6005 2.2087L49.3955 7.53492L51.6106 7.48165C51.7728 7.47359 52.2222 7.47079 52.3261 7.47079C54.445 7.47184 55.7104 8.10048 55.7104 9.15381C55.7104 9.48529 55.5654 10.0999 54.5957 10.491C54.0232 10.7222 53.2594 10.8393 52.3253 10.8393C52.2226 10.8393 51.7743 10.8365 51.6098 10.8284L49.3951 10.7744L44.5883 16.1007C44.5007 16.2047 44.3886 16.2894 44.2604 16.3485C44.1322 16.4077 43.9911 16.4397 43.8475 16.4423V16.4423Z" fill="#1262AE"/>
<circle cx="4.73513" cy="9.40165" r="2.99016" fill="white" stroke="#1262AE" stroke-width="1.49508"/>
<circle cx="84.984" cy="9.08993" r="2.99016" fill="white" stroke="#1262AE" stroke-width="1.49508"/>
</svg>
