<svg width="50" height="50" viewBox="0 0 50 50" fill="none" xmlns="http://www.w3.org/2000/svg">
<rect x="0.598816" y="0.467743" width="48.8794" height="48.8794" rx="11.9606" fill="#36DA76"/>
<path d="M31.3685 34.4346C31.3275 33.5574 31.2731 32.6849 31.2296 31.8143C31.089 29.0909 31.1005 26.3275 30.9533 23.5906C30.8062 20.8742 30.8935 18.156 30.8158 15.4397C30.8002 14.8752 30.8254 13.7603 30.2412 13.4384C28.9846 12.7471 28.2387 14.6328 27.919 15.4006C27.3427 16.7941 27.0097 18.2597 26.5981 19.7034C26.2473 20.9392 25.8477 22.1709 25.7123 23.4504C25.6121 24.4105 25.6213 25.4852 26.1228 26.3503C26.3747 26.785 26.8101 27.0809 27.306 27.206C27.8206 27.3376 28.409 27.1653 28.8973 27.3977C29.0232 27.4585 29.1341 27.5849 29.1846 27.7125C29.3429 28.1239 29.1932 28.7479 29.1437 29.1723C28.987 30.5393 28.8212 31.92 28.747 33.2935C28.7031 34.1242 28.6546 35.1881 29.1571 35.9119C29.4651 36.3514 30.0894 36.7618 30.6526 36.5433C31.4945 36.2211 31.4035 35.1326 31.3685 34.4346V34.4346Z" fill="white"/>
<path d="M20.6588 14.0448C20.4169 14.1418 20.5086 15.0068 20.4979 15.2725C20.482 15.75 20.5146 16.3818 20.4571 17.0006C20.4567 17.0061 20.4559 17.0099 20.4551 17.0138C20.4501 17.0568 20.4461 17.1032 20.439 17.1521C20.4315 17.1994 20.4234 17.245 20.4177 17.2919C20.3661 17.5936 20.2679 17.9508 20.0823 18.1221C19.8716 18.318 19.3995 18.2768 19.2356 18.0453C18.9673 17.6685 18.9874 16.8272 18.9712 16.8024C18.9602 16.4044 18.9022 15.2007 18.8153 14.407C18.8081 14.3472 18.7965 13.9875 18.4681 13.9491C18.3149 13.9324 18.1537 14.063 18.1015 14.3013C17.9472 15.005 17.8028 16.3463 17.7937 16.5572C17.7918 16.5777 17.7909 16.6015 17.7908 16.6214C17.7908 16.6214 17.79 16.6253 17.7905 16.627C17.7895 16.6708 17.7373 17.7216 17.4714 18.0842C17.3324 18.2742 16.9716 18.4237 16.613 18.2226C16.4702 18.1416 16.3723 17.9856 16.3033 17.8184C15.9283 16.6512 16.2649 15.3654 16.3128 14.7528C16.327 14.5804 16.483 14.0051 16.1349 14.0243C15.6107 14.0528 14.9337 16.2862 14.8127 16.7981C14.516 18.0718 14.471 19.4327 14.9871 20.6614C15.2739 21.3417 15.8348 21.8986 16.5302 22.1686C16.8376 22.2869 17.1792 22.3727 17.5409 22.4225C17.4108 25.318 17.263 28.3396 17.1285 30.0211C17.025 31.2866 16.9028 32.5659 16.9192 33.8366C16.9289 34.5958 16.9209 35.5011 17.4193 36.1376C17.9406 36.8027 19.0402 36.4968 19.3371 35.7109C19.6701 34.825 19.5732 33.7927 19.4598 32.1662C19.346 30.538 19.2178 28.3168 19.1472 27.1217C19.0438 25.3621 19.0077 23.8244 18.9978 22.4214C19.9237 22.2891 20.7873 21.8918 21.2706 21.1611C21.4827 20.8415 21.6223 20.4844 21.7177 20.117C21.8639 19.5605 21.9352 18.9508 21.9036 18.3768C21.8715 17.8483 21.4371 13.733 20.6588 14.0448V14.0448Z" fill="white"/>
</svg>
