<svg width="19" height="19" viewBox="0 0 19 19" fill="none" xmlns="http://www.w3.org/2000/svg">
<path d="M17.0326 14.6789C16.5521 14.2505 16.1313 13.7594 15.7818 13.2187C15.4001 12.4725 15.1714 11.6575 15.109 10.8216V8.35971C15.1123 7.04684 14.636 5.77795 13.7698 4.79145C12.9035 3.80494 11.7068 3.16873 10.4045 3.00235V2.35946C10.4045 2.18301 10.3344 2.01379 10.2096 1.88902C10.0848 1.76425 9.9156 1.69415 9.73915 1.69415C9.5627 1.69415 9.39347 1.76425 9.2687 1.88902C9.14394 2.01379 9.07384 2.18301 9.07384 2.35946V3.01231C7.78322 3.19069 6.60096 3.83075 5.74606 4.81394C4.89115 5.79713 4.42152 7.05682 4.42414 8.35971V10.8216C4.36173 11.6575 4.13299 12.4725 3.75136 13.2187C3.40793 13.7581 2.99395 14.2492 2.52041 14.6789C2.46725 14.7256 2.42465 14.7831 2.39543 14.8476C2.36621 14.912 2.35106 14.9819 2.35097 15.0527V15.7305C2.35097 15.8626 2.40347 15.9894 2.49693 16.0828C2.59039 16.1763 2.71715 16.2288 2.84933 16.2288H16.7037C16.8359 16.2288 16.9627 16.1763 17.0561 16.0828C17.1496 15.9894 17.2021 15.8626 17.2021 15.7305V15.0527C17.202 14.9819 17.1868 14.912 17.1576 14.8476C17.1284 14.7831 17.0858 14.7256 17.0326 14.6789ZM3.38756 15.2321C3.85123 14.7842 4.25949 14.2822 4.60355 13.737C5.08428 12.8357 5.36476 11.8413 5.42585 10.8216V8.35971C5.40608 7.77565 5.50405 7.19359 5.71392 6.64818C5.92379 6.10277 6.24127 5.60517 6.64745 5.18501C7.05363 4.76486 7.54021 4.43073 8.07821 4.20253C8.61621 3.97434 9.19462 3.85674 9.77902 3.85674C10.3634 3.85674 10.9418 3.97434 11.4798 4.20253C12.0178 4.43073 12.5044 4.76486 12.9106 5.18501C13.3168 5.60517 13.6342 6.10277 13.8441 6.64818C14.054 7.19359 14.152 7.77565 14.1322 8.35971V10.8216C14.1933 11.8413 14.4738 12.8357 14.9545 13.737C15.2986 14.2822 15.7068 14.7842 16.1705 15.2321H3.38756Z" fill="#424242"/>
<path d="M9.80158 17.8637C10.1155 17.8565 10.4168 17.7385 10.6521 17.5305C10.8874 17.3226 11.0416 17.0381 11.0873 16.7275H8.46597C8.51305 17.0466 8.67445 17.3377 8.92013 17.5467C9.16581 17.7557 9.47905 17.8684 9.80158 17.8637V17.8637Z" fill="#424242"/>
<circle cx="14.6281" cy="4.87415" r="2.61639" fill="#F99A0E" stroke="white" stroke-width="0.74754"/>
</svg>
