<svg width="14" height="14" viewBox="0 0 14 14" fill="none" xmlns="http://www.w3.org/2000/svg">
<path d="M12.9797 5.49648L9.24269 4.91025L7.57216 1.2546C7.52653 1.15451 7.45146 1.07349 7.35874 1.02424C7.12619 0.900315 6.84359 1.00358 6.72732 1.2546L5.05678 4.91025L1.31978 5.49648C1.21675 5.51237 1.12255 5.5648 1.05043 5.64423C0.96324 5.74097 0.915195 5.8711 0.916851 6.00605C0.918506 6.141 0.969728 6.26972 1.05926 6.36393L3.76303 9.20932L3.12425 13.2272C3.10927 13.3207 3.11885 13.4168 3.15191 13.5047C3.18497 13.5926 3.24018 13.6687 3.31128 13.7244C3.38238 13.7802 3.46652 13.8133 3.55418 13.82C3.64183 13.8268 3.72948 13.8069 3.80719 13.7626L7.14974 11.8657L10.4923 13.7626C10.5835 13.815 10.6895 13.8325 10.7911 13.8134C11.0472 13.7658 11.2194 13.5036 11.1752 13.2272L10.5364 9.20932L13.2402 6.36393C13.3138 6.28608 13.3624 6.1844 13.3771 6.07319C13.4168 5.79516 13.2373 5.53779 12.9797 5.49648V5.49648Z" fill="#FDBF00"/>
</svg>
