<svg width="14" height="14" viewBox="0 0 14 14" fill="none" xmlns="http://www.w3.org/2000/svg">
<path d="M12.7442 5.49642L9.01432 4.91018L7.34699 1.25454C7.30145 1.15445 7.22653 1.07342 7.13398 1.02417C6.90187 0.900254 6.61982 1.00352 6.50377 1.25454L4.83644 4.91018L1.1066 5.49642C1.00377 5.51231 0.909752 5.56474 0.837771 5.64417C0.750748 5.74091 0.702795 5.87104 0.704448 6.00599C0.706101 6.14094 0.757224 6.26966 0.846585 6.36386L3.54517 9.20926L2.90762 13.2271C2.89267 13.3206 2.90223 13.4167 2.93522 13.5046C2.96821 13.5925 3.02332 13.6686 3.09428 13.7244C3.16525 13.7801 3.24923 13.8132 3.33672 13.82C3.4242 13.8267 3.51168 13.8068 3.58924 13.7625L6.92538 11.8656L10.2615 13.7625C10.3526 13.815 10.4584 13.8324 10.5597 13.8134C10.8153 13.7657 10.9872 13.5036 10.9431 13.2271L10.3056 9.20926L13.0042 6.36386C13.0776 6.28602 13.1261 6.18434 13.1408 6.07313C13.1805 5.7951 13.0012 5.53773 12.7442 5.49642V5.49642Z" fill="#FDBF00"/>
</svg>
