<svg width="13" height="14" viewBox="0 0 13 14" fill="none" xmlns="http://www.w3.org/2000/svg">
<path d="M12.5315 5.49642L8.80167 4.91018L7.13433 1.25454C7.08879 1.15445 7.01387 1.07342 6.92133 1.02417C6.68922 0.900254 6.40717 1.00352 6.29112 1.25454L4.62378 4.91018L0.893954 5.49642C0.791123 5.51231 0.697106 5.56474 0.625124 5.64417C0.538102 5.74091 0.490149 5.87104 0.491802 6.00599C0.493454 6.14094 0.544578 6.26966 0.633938 6.36386L3.33252 9.20926L2.69497 13.2271C2.68002 13.3206 2.68958 13.4167 2.72257 13.5046C2.75557 13.5925 2.81067 13.6686 2.88163 13.7244C2.9526 13.7801 3.03658 13.8132 3.12407 13.82C3.21155 13.8267 3.29903 13.8068 3.37659 13.7625L6.71273 11.8656L10.0489 13.7625C10.1399 13.815 10.2457 13.8324 10.3471 13.8134C10.6027 13.7657 10.7746 13.5036 10.7305 13.2271L10.0929 9.20926L12.7915 6.36386C12.865 6.28602 12.9134 6.18434 12.9281 6.07313C12.9678 5.7951 12.7886 5.53773 12.5315 5.49642V5.49642Z" fill="#FDBF00"/>
</svg>
