<svg width="13" height="14" viewBox="0 0 13 14" fill="none" xmlns="http://www.w3.org/2000/svg">
<path d="M12.1695 5.49642L8.43965 4.91018L6.77232 1.25454C6.72678 1.15445 6.65186 1.07342 6.55931 1.02417C6.32721 0.900254 6.04516 1.00352 5.9291 1.25454L4.26177 4.91018L0.531953 5.49642C0.429123 5.51231 0.335106 5.56474 0.263124 5.64417C0.176102 5.74091 0.128149 5.87104 0.129802 6.00599C0.131455 6.14094 0.182578 6.26966 0.271938 6.36386L2.97051 9.20926L2.33296 13.2271C2.31801 13.3206 2.32757 13.4167 2.36057 13.5046C2.39356 13.5925 2.44866 13.6686 2.51963 13.7244C2.59059 13.7801 2.67458 13.8132 2.76206 13.82C2.84954 13.8267 2.93703 13.8068 3.01458 13.7625L6.35071 11.8656L9.68684 13.7625C9.77792 13.815 9.88369 13.8324 9.98505 13.8134C10.2407 13.7657 10.4125 13.5036 10.3685 13.2271L9.73091 9.20926L12.4295 6.36386C12.5029 6.28602 12.5514 6.18434 12.5661 6.07313C12.6058 5.7951 12.4265 5.53773 12.1695 5.49642V5.49642Z" fill="#FDBF00"/>
</svg>
