<svg width="20" height="20" viewBox="0 0 20 20" fill="none" xmlns="http://www.w3.org/2000/svg">
<path d="M9.98321 17.8543C7.94045 17.8543 5.98136 17.0428 4.53691 15.5984C3.09246 14.1539 2.28098 12.1949 2.28098 10.1521C2.28098 8.10934 3.09246 6.15024 4.53691 4.7058C5.98136 3.26135 7.94045 2.44987 9.98321 2.44987C12.026 2.44987 13.9851 3.26135 15.4295 4.7058C16.874 6.15024 17.6854 8.10934 17.6854 10.1521C17.6854 12.1949 16.874 14.1539 15.4295 15.5984C13.9851 17.0428 12.026 17.8543 9.98321 17.8543ZM9.98321 18.9546C12.3178 18.9546 14.5568 18.0272 16.2075 16.3764C17.8583 14.7256 18.7858 12.4867 18.7858 10.1521C18.7858 7.81751 17.8583 5.57855 16.2075 3.92775C14.5568 2.27696 12.3178 1.34955 9.98321 1.34955C7.64863 1.34955 5.40967 2.27696 3.75887 3.92775C2.10807 5.57855 1.18066 7.81751 1.18066 10.1521C1.18066 12.4867 2.10807 14.7256 3.75887 16.3764C5.40967 18.0272 7.64863 18.9546 9.98321 18.9546V18.9546Z" fill="#1262AF"/>
<path d="M8.01821 6.41434C8.122 6.36089 8.23854 6.33711 8.35498 6.34562C8.47142 6.35413 8.58326 6.3946 8.67818 6.46257L13.1203 9.63554C13.2026 9.69424 13.2697 9.77174 13.3159 9.86159C13.3622 9.95144 13.3863 10.051 13.3863 10.1521C13.3863 10.2532 13.3622 10.3528 13.3159 10.4426C13.2697 10.5325 13.2026 10.61 13.1203 10.6687L8.67818 13.8416C8.58329 13.9095 8.47151 13.95 8.35513 13.9585C8.23874 13.967 8.12227 13.9433 8.01851 13.8899C7.91474 13.8365 7.82771 13.7555 7.76698 13.6559C7.70624 13.5562 7.67416 13.4418 7.67426 13.3251V6.97913C7.67413 6.86247 7.70617 6.74803 7.76685 6.64839C7.82753 6.54875 7.9145 6.46777 8.01821 6.41434V6.41434Z" fill="#1262AF"/>
</svg>
