<svg width="19" height="20" viewBox="0 0 19 20" fill="none" xmlns="http://www.w3.org/2000/svg">
<g clip-path="url(#clip0_1038_1444)">
<path d="M9.62116 17.8543C7.57841 17.8543 5.61931 17.0428 4.17487 15.5984C2.73042 14.1539 1.91894 12.1949 1.91894 10.1521C1.91894 8.10934 2.73042 6.15024 4.17487 4.7058C5.61931 3.26135 7.57841 2.44987 9.62116 2.44987C11.6639 2.44987 13.623 3.26135 15.0675 4.7058C16.5119 6.15024 17.3234 8.10934 17.3234 10.1521C17.3234 12.1949 16.5119 14.1539 15.0675 15.5984C13.623 17.0428 11.6639 17.8543 9.62116 17.8543ZM9.62116 18.9546C11.9557 18.9546 14.1947 18.0272 15.8455 16.3764C17.4963 14.7256 18.4237 12.4867 18.4237 10.1521C18.4237 7.81751 17.4963 5.57855 15.8455 3.92775C14.1947 2.27696 11.9557 1.34955 9.62116 1.34955C7.28658 1.34955 5.04762 2.27696 3.39682 3.92775C1.74603 5.57855 0.818619 7.81751 0.818619 10.1521C0.818619 12.4867 1.74603 14.7256 3.39682 16.3764C5.04762 18.0272 7.28658 18.9546 9.62116 18.9546V18.9546Z" fill="#1262AF"/>
<path d="M7.65619 6.41434C7.75999 6.36089 7.87652 6.33711 7.99296 6.34562C8.10941 6.35413 8.22124 6.3946 8.31617 6.46257L12.7583 9.63554C12.8406 9.69424 12.9076 9.77174 12.9539 9.86159C13.0002 9.95144 13.0243 10.051 13.0243 10.1521C13.0243 10.2532 13.0002 10.3528 12.9539 10.4426C12.9076 10.5325 12.8406 10.61 12.7583 10.6687L8.31617 13.8416C8.22128 13.9095 8.10949 13.95 7.99311 13.9585C7.87673 13.967 7.76025 13.9433 7.65649 13.8899C7.55273 13.8365 7.4657 13.7555 7.40496 13.6559C7.34423 13.5562 7.31215 13.4418 7.31224 13.3251V6.97913C7.31212 6.86247 7.34416 6.74803 7.40484 6.64839C7.46551 6.54875 7.55248 6.46777 7.65619 6.41434V6.41434Z" fill="#1262AF"/>
</g>
<defs>
<clipPath id="clip0_1038_1444">
<rect width="18.6885" height="18.6885" fill="white" transform="translate(0.276917 0.807861)"/>
</clipPath>
</defs>
</svg>
